<?xml version="1.0" standalone="no"?>
<!DOCTYPE svg PUBLIC "-//W3C//DTD SVG 20010904//EN" "http://www.w3.org/TR/2001/REC-SVG-20010904/DTD/svg10.dtd">
<!--svg width="2.24cm" height="1cm" viewBox="-1 -1 23 11" xmlns="http://www.w3.org/2000/svg"-->
<svg viewBox="-1 -1 51 61" xmlns="http://www.w3.org/2000/svg">
  <g fill="#558ed5">
    <rect x="0" y="50" width="9" height="9" />
    <rect x="10" y="50" width="9" height="9" />
    <rect x="10" y="40" width="9" height="9" />
    <rect x="20" y="50" width="9" height="9" />
    <rect x="20" y="40" width="9" height="9" />
    <rect x="20" y="30" width="9" height="9" />
    <rect x="30" y="50" width="9" height="9" />
    <rect x="30" y="40" width="9" height="9" />
    <rect x="30" y="30" width="9" height="9" />
    <rect x="30" y="20" width="9" height="9" />
    <rect x="40" y="50" width="9" height="9" />
    <rect x="40" y="40" width="9" height="9" />
    <rect x="40" y="30" width="9" height="9" />
    <rect x="40" y="20" width="9" height="9" />
    <rect x="40" y="10" width="9" height="9" />
  </g>
  <g fill="#c6d5f1">
    <rect x="0" y="40" width="9" height="9" />
    <rect x="0" y="30" width="9" height="9" />
    <rect x="0" y="20" width="9" height="9" />
    <rect x="0" y="10" width="9" height="9" />
    <rect x="0" y="0" width="9" height="9" />
    <rect x="10" y="30" width="9" height="9" />
    <rect x="10" y="20" width="9" height="9" />
    <rect x="10" y="10" width="9" height="9" />
    <rect x="10" y="0" width="9" height="9" />
    <rect x="20" y="20" width="9" height="9" />
    <rect x="20" y="10" width="9" height="9" />
    <rect x="20" y="0" width="9" height="9" />
    <rect x="30" y="10" width="9" height="9" />
    <rect x="30" y="0" width="9" height="9" />
    <rect x="40" y="0" width="9" height="9" />
  </g>
</svg>
