<?xml version="1.0" standalone="no"?>
<!DOCTYPE svg PUBLIC "-//W3C//DTD SVG 20010904//EN" "http://www.w3.org/TR/2001/REC-SVG-20010904/DTD/svg10.dtd">
<svg viewBox="-5 -5 155 155" xmlns="http://www.w3.org/2000/svg">
  <g fill="#b0d0ef">
    <rect x="1" y="141" width="8" height="8" />

    <rect x="30" y="140" width="9" height="9" />
    <rect x="30" y="130" width="9" height="9" />
    <rect x="30" y="120" width="9" height="9" />
    <rect x="40" y="140" width="9" height="9" />
    <rect x="40" y="130" width="9" height="9" />
    <rect x="40" y="120" width="9" height="9" />
    <rect x="50" y="140" width="9" height="9" />
    <rect x="50" y="130" width="9" height="9" />
    <rect x="50" y="120" width="9" height="9" />

    <rect x="0" y="110" width="9" height="9" />
    <rect x="0" y="100" width="9" height="9" />
    <rect x="0" y="90" width="9" height="9" />
    <rect x="10" y="110" width="9" height="9" />
    <rect x="10" y="100" width="9" height="9" />
    <rect x="10" y="90" width="9" height="9" />
    <rect x="20" y="110" width="9" height="9" />
    <rect x="20" y="100" width="9" height="9" />
    <rect x="20" y="90" width="9" height="9" />

    <rect x="30" y="110" width="9" height="9" />
    <rect x="30" y="100" width="9" height="9" />
    <rect x="30" y="90" width="9" height="9" />
    <rect x="40" y="110" width="9" height="9" />
    <rect x="40" y="100" width="9" height="9" />
    <rect x="40" y="90" width="9" height="9" />
    <rect x="50" y="110" width="9" height="9" />
    <rect x="50" y="100" width="9" height="9" />
    <rect x="50" y="90" width="9" height="9" />

    <rect x="100" y="140" width="9" height="9" />
    <rect x="100" y="130" width="9" height="9" />
    <rect x="100" y="120" width="9" height="9" />
    <rect x="100" y="110" width="9" height="9" />
    <rect x="100" y="100" width="9" height="9" />
    <rect x="100" y="90" width="9" height="9" />
    <rect x="100" y="80" width="9" height="9" />
    <rect x="100" y="70" width="9" height="9" />
    <rect x="100" y="60" width="9" height="9" />
    <rect x="100" y="50" width="9" height="9" />
    <rect x="100" y="40" width="9" height="9" />
    <rect x="100" y="30" width="9" height="9" />
    <rect x="100" y="20" width="9" height="9" />
    <rect x="100" y="10" width="9" height="9" />
    <rect x="100" y="0" width="9" height="9" />
    
    <rect x="110" y="140" width="9" height="9" />
    <rect x="110" y="130" width="9" height="9" />
    <rect x="110" y="120" width="9" height="9" />
    <rect x="110" y="110" width="9" height="9" />
    <rect x="110" y="100" width="9" height="9" />
    <rect x="110" y="90" width="9" height="9" />
    <rect x="110" y="80" width="9" height="9" />
    <rect x="110" y="70" width="9" height="9" />
    <rect x="110" y="60" width="9" height="9" />
    <rect x="110" y="50" width="9" height="9" />
    <rect x="110" y="40" width="9" height="9" />
    <rect x="110" y="30" width="9" height="9" />
    <rect x="110" y="20" width="9" height="9" />
    <rect x="110" y="10" width="9" height="9" />
    <rect x="110" y="0" width="9" height="9" />

    <rect x="120" y="140" width="9" height="9" />
    <rect x="120" y="130" width="9" height="9" />
    <rect x="120" y="120" width="9" height="9" />
    <rect x="120" y="110" width="9" height="9" />
    <rect x="120" y="100" width="9" height="9" />
    <rect x="120" y="90" width="9" height="9" />
    <rect x="120" y="80" width="9" height="9" />
    <rect x="120" y="70" width="9" height="9" />
    <rect x="120" y="60" width="9" height="9" />
    <rect x="120" y="50" width="9" height="9" />
    <rect x="120" y="40" width="9" height="9" />
    <rect x="120" y="30" width="9" height="9" />
    <rect x="120" y="20" width="9" height="9" />
    <rect x="120" y="10" width="9" height="9" />
    <rect x="120" y="0" width="9" height="9" />

    <rect x="130" y="140" width="9" height="9" />
    <rect x="130" y="130" width="9" height="9" />
    <rect x="130" y="120" width="9" height="9" />
    <rect x="130" y="110" width="9" height="9" />
    <rect x="130" y="100" width="9" height="9" />
    <rect x="130" y="90" width="9" height="9" />
    <rect x="130" y="80" width="9" height="9" />
    <rect x="130" y="70" width="9" height="9" />
    <rect x="130" y="60" width="9" height="9" />
    <rect x="130" y="50" width="9" height="9" />
    <rect x="130" y="40" width="9" height="9" />
    <rect x="130" y="30" width="9" height="9" />
    <rect x="130" y="20" width="9" height="9" />
    <rect x="130" y="10" width="9" height="9" />
    <rect x="130" y="0" width="9" height="9" />

    <rect x="140" y="140" width="9" height="9" />
    <rect x="140" y="130" width="9" height="9" />
    <rect x="140" y="120" width="9" height="9" />
    <rect x="140" y="110" width="9" height="9" />
    <rect x="140" y="100" width="9" height="9" />
    <rect x="140" y="90" width="9" height="9" />
    <rect x="140" y="80" width="9" height="9" />
    <rect x="140" y="70" width="9" height="9" />
    <rect x="140" y="60" width="9" height="9" />
    <rect x="140" y="50" width="9" height="9" />
    <rect x="140" y="40" width="9" height="9" />
    <rect x="140" y="30" width="9" height="9" />
    <rect x="140" y="20" width="9" height="9" />
    <rect x="140" y="10" width="9" height="9" />
    <rect x="140" y="0" width="9" height="9" />

    <rect x="90" y="40" width="9" height="9" />
    <rect x="90" y="30" width="9" height="9" />
    <rect x="90" y="20" width="9" height="9" />
    <rect x="90" y="10" width="9" height="9" />
    <rect x="90" y="0" width="9" height="9" />

    <rect x="80" y="40" width="9" height="9" />
    <rect x="80" y="30" width="9" height="9" />
    <rect x="80" y="20" width="9" height="9" />
    <rect x="80" y="10" width="9" height="9" />
    <rect x="80" y="0" width="9" height="9" />

    <rect x="70" y="40" width="9" height="9" />
    <rect x="70" y="30" width="9" height="9" />
    <rect x="70" y="20" width="9" height="9" />
    <rect x="70" y="10" width="9" height="9" />
    <rect x="70" y="0" width="9" height="9" />

    <rect x="60" y="40" width="9" height="9" />
    <rect x="60" y="30" width="9" height="9" />
    <rect x="60" y="20" width="9" height="9" />
    <rect x="60" y="10" width="9" height="9" />
    <rect x="60" y="0" width="9" height="9" />

    <rect x="50" y="40" width="9" height="9" />
    <rect x="50" y="30" width="9" height="9" />
    <rect x="50" y="20" width="9" height="9" />
    <rect x="50" y="10" width="9" height="9" />
    <rect x="50" y="0" width="9" height="9" />

    <rect x="40" y="40" width="9" height="9" />
    <rect x="40" y="30" width="9" height="9" />
    <rect x="40" y="20" width="9" height="9" />
    <rect x="40" y="10" width="9" height="9" />
    <rect x="40" y="0" width="9" height="9" />

    <rect x="30" y="40" width="9" height="9" />
    <rect x="30" y="30" width="9" height="9" />
    <rect x="30" y="20" width="9" height="9" />
    <rect x="30" y="10" width="9" height="9" />
    <rect x="30" y="0" width="9" height="9" />

    <rect x="20" y="40" width="9" height="9" />
    <rect x="20" y="30" width="9" height="9" />
    <rect x="20" y="20" width="9" height="9" />
    <rect x="20" y="10" width="9" height="9" />
    <rect x="20" y="0" width="9" height="9" />

    <rect x="10" y="40" width="9" height="9" />
    <rect x="10" y="30" width="9" height="9" />
    <rect x="10" y="20" width="9" height="9" />
    <rect x="10" y="10" width="9" height="9" />
    <rect x="10" y="0" width="9" height="9" />

    <rect x="0" y="40" width="9" height="9" />
    <rect x="0" y="30" width="9" height="9" />
    <rect x="0" y="20" width="9" height="9" />
    <rect x="0" y="10" width="9" height="9" />
    <rect x="0" y="0" width="9" height="9" />
  </g>
  <g fill="none" stroke="#2A4768" stroke-width="2">
    <rect x="0.5" y="0.5" width="48" height="48" />
    <rect x="50.51" y="0.5" width="48" height="48" />
    <rect x="100.5" y="0.5" width="48" height="48" />
    <rect x="100.5" y="50.5" width="48" height="48" />
    <rect x="100.5" y="100.5" width="48" height="48" />

    <rect x="0.5" y="90.5" width="28" height="28" />
    <rect x="30.5" y="90.5" width="28" height="28" />
    <rect x="30.5" y="120.5" width="28" height="28" />

    <rect x="1" y="141" width="8" height="8" />
  </g>

  <g fill="#ffd0e0">
    <rect x="0" y="50" width="9" height="9" />
    <rect x="10" y="50" width="9" height="9" />
    <rect x="20" y="50" width="9" height="9" />
    <rect x="30" y="50" width="9" height="9" />
    <rect x="40" y="50" width="9" height="9" />
    <rect x="50" y="50" width="9" height="9" />
    <rect x="60" y="50" width="9" height="9" />
    <rect x="70" y="50" width="9" height="9" />

    <rect x="0" y="60" width="9" height="9" />
    <rect x="10" y="60" width="9" height="9" />
    <rect x="20" y="60" width="9" height="9" />
    <rect x="30" y="60" width="9" height="9" />
    <rect x="40" y="60" width="9" height="9" />
    <rect x="50" y="60" width="9" height="9" />
    <rect x="60" y="60" width="9" height="9" />
    <rect x="70" y="60" width="9" height="9" />

    <rect x="0" y="70" width="9" height="9" />
    <rect x="10" y="70" width="9" height="9" />
    <rect x="20" y="70" width="9" height="9" />
    <rect x="30" y="70" width="9" height="9" />
    <rect x="40" y="70" width="9" height="9" />
    <rect x="50" y="70" width="9" height="9" />
    <rect x="60" y="70" width="9" height="9" />
    <rect x="70" y="70" width="9" height="9" />
    <rect x="80" y="70" width="9" height="9" />
    <rect x="90" y="70" width="9" height="9" />

    <rect x="0" y="80" width="9" height="9" />
    <rect x="10" y="80" width="9" height="9" />
    <rect x="20" y="80" width="9" height="9" />
    <rect x="30" y="80" width="9" height="9" />
    <rect x="40" y="80" width="9" height="9" />
    <rect x="50" y="80" width="9" height="9" />
    <rect x="60" y="80" width="9" height="9" />
    <rect x="70" y="80" width="9" height="9" />
    <rect x="80" y="80" width="9" height="9" />
    <rect x="90" y="80" width="9" height="9" />

    <rect x="60" y="90" width="9" height="9" />
    <rect x="70" y="90" width="9" height="9" />
    <rect x="80" y="90" width="9" height="9" />
    <rect x="90" y="90" width="9" height="9" />
    
    <rect x="60" y="100" width="9" height="9" />
    <rect x="70" y="100" width="9" height="9" />
    <rect x="80" y="100" width="9" height="9" />
    <rect x="90" y="100" width="9" height="9" />

    <rect x="60" y="110" width="9" height="9" />
    <rect x="70" y="110" width="9" height="9" />
    <rect x="80" y="110" width="9" height="9" />
    <rect x="90" y="110" width="9" height="9" />
    
    <rect x="60" y="120" width="9" height="9" />
    <rect x="70" y="120" width="9" height="9" />
    <rect x="80" y="120" width="9" height="9" />
    <rect x="90" y="120" width="9" height="9" />

    <rect x="60" y="130" width="9" height="9" />
    <rect x="70" y="130" width="9" height="9" />
    <rect x="80" y="130" width="9" height="9" />
    <rect x="90" y="130" width="9" height="9" />

    <rect x="60" y="140" width="9" height="9" />
    <rect x="70" y="140" width="9" height="9" />
    <rect x="80" y="140" width="9" height="9" />
    <rect x="90" y="140" width="9" height="9" />

    <rect x="0" y="120" width="9" height="9" />
    <rect x="10" y="120" width="9" height="9" />
    <rect x="0" y="130" width="9" height="9" />
    <rect x="10" y="130" width="9" height="9" />
    <rect x="20" y="130" width="9" height="9" />
    <rect x="10" y="140" width="9" height="9" />
    <rect x="20" y="140" width="9" height="9" />
  </g>

  <g fill="#e8e8e8">
    <rect x="80" y="50" width="9" height="9" />
    <rect x="90" y="50" width="9" height="9" />
    <rect x="80" y="60" width="9" height="9" />
    <rect x="90" y="60" width="9" height="9" />

    <rect x="20" y="120" width="9" height="9" />
  </g>

  <g fill="none" stroke="#ff0040" stroke-width="2">
    <rect x="0.5" y="120.5" width="18" height="18" />
    <rect x="10.5" y="130.5" width="18" height="18" />

    <rect x="0.5" y="50.5" width="38" height="38" />
    <rect x="40.5" y="50.5" width="38" height="38" />
    <rect x="60.5" y="110.5" width="38" height="38" />
    <rect x="60.5" y="70.5" width="38" height="38" />
  </g>
  
</svg>
