<?xml version="1.0" standalone="no"?>
<!DOCTYPE svg PUBLIC "-//W3C//DTD SVG 20010904//EN" "http://www.w3.org/TR/2001/REC-SVG-20010904/DTD/svg10.dtd">
<!--svg width="2.24cm" height="1cm" viewBox="-1 -1 23 11" xmlns="http://www.w3.org/2000/svg"-->
<svg viewBox="-1 -1 129 129" xmlns="http://www.w3.org/2000/svg">
  <g stroke="#100060" stroke-width="1">
    <g fill="#100060">
      <rect x="0" y="0" width="128" height="128" />
    </g>
    <g fill="#fff" stroke="#fff" stroke-width="0">
      <rect x="0" y="0" width="64" height="64"/>
      <rect x="0" y="64" width="32" height="32"/>
      <rect x="0" y="96" width="16" height="16"/>
      <rect x="0" y="112" width="8" height="8"/>
      <rect x="16" y="96" width="8" height="8"/>
      <rect x="16" y="112" width="8" height="8"/>
      <rect x="32" y="64" width="16" height="16"/>
      <rect x="32" y="80" width="8" height="8"/>
      <rect x="48" y="64" width="8" height="8"/>
      <rect x="48" y="80" width="8" height="8"/>
      <rect x="32" y="96" width="16" height="16"/>
      <rect x="32" y="112" width="8" height="8"/>
      <rect x="48" y="96" width="8" height="8"/>
      <rect x="48" y="112" width="8" height="8"/>
      <rect x="64" y="0" width="32" height="32"/>
      <rect x="64" y="32" width="16" height="16"/>
      <rect x="64" y="48" width="8" height="8"/>
      <rect x="80" y="32" width="8" height="8"/>
      <rect x="80" y="48" width="8" height="8"/>
      <rect x="96" y="0" width="16" height="16"/>
      <rect x="96" y="16" width="8" height="8"/>
      <rect x="112" y="0" width="8" height="8"/>
      <rect x="112" y="16" width="8" height="8"/>
      <rect x="96" y="32" width="16" height="16"/>
      <rect x="96" y="48" width="8" height="8"/>
      <rect x="112" y="32" width="8" height="8"/>
      <rect x="112" y="48" width="8" height="8"/>
      <rect x="64" y="64" width="32" height="32"/>
      <rect x="64" y="96" width="16" height="16"/>
      <rect x="64" y="112" width="8" height="8"/>
      <rect x="80" y="96" width="8" height="8"/>
      <rect x="80" y="112" width="8" height="8"/>
      <rect x="96" y="64" width="16" height="16"/>
      <rect x="96" y="80" width="8" height="8"/>
      <rect x="112" y="64" width="8" height="8"/>
      <rect x="112" y="80" width="8" height="8"/>
      <rect x="96" y="96" width="16" height="16"/>
      <rect x="96" y="112" width="8" height="8"/>
      <rect x="112" y="96" width="8" height="8"/>
      <rect x="112" y="112" width="8" height="8"/>
    </g>
  </g>
</svg>
