<?xml version="1.0" standalone="no"?>
<!DOCTYPE svg PUBLIC "-//W3C//DTD SVG 20010904//EN" "http://www.w3.org/TR/2001/REC-SVG-20010904/DTD/svg10.dtd">
<!--svg width="2.24cm" height="1cm" viewBox="-1 -1 23 11" xmlns="http://www.w3.org/2000/svg"-->
<svg viewBox="-1 -1 129 129" xmlns="http://www.w3.org/2000/svg">
  <g stroke="#100060" stroke-width="1">
    <g fill="#100060">
      <rect x="0" y="0" width="128" height="128" />
    </g>
    <g fill="#fff" stroke="#fff" stroke-width="0">
      <rect x="0" y="0" width="64" height="64"/>
      <rect x="0" y="64" width="32" height="32"/>
      <rect x="0" y="96" width="16" height="16"/>
      <rect x="0" y="112" width="8" height="8"/>
      <rect x="0" y="120" width="4" height="4"/>
      <rect x="0" y="124" width="2" height="2"/>
      <rect x="4" y="120" width="2" height="2"/>
      <rect x="4" y="124" width="2" height="2"/>
      <rect x="8" y="112" width="4" height="4"/>
      <rect x="8" y="116" width="2" height="2"/>
      <rect x="12" y="112" width="2" height="2"/>
      <rect x="12" y="116" width="2" height="2"/>
      <rect x="8" y="120" width="4" height="4"/>
      <rect x="8" y="124" width="2" height="2"/>
      <rect x="12" y="120" width="2" height="2"/>
      <rect x="12" y="124" width="2" height="2"/>
      <rect x="16" y="96" width="8" height="8"/>
      <rect x="16" y="104" width="4" height="4"/>
      <rect x="16" y="108" width="2" height="2"/>
      <rect x="20" y="104" width="2" height="2"/>
      <rect x="20" y="108" width="2" height="2"/>
      <rect x="24" y="96" width="4" height="4"/>
      <rect x="24" y="100" width="2" height="2"/>
      <rect x="28" y="96" width="2" height="2"/>
      <rect x="28" y="100" width="2" height="2"/>
      <rect x="24" y="104" width="4" height="4"/>
      <rect x="24" y="108" width="2" height="2"/>
      <rect x="28" y="104" width="2" height="2"/>
      <rect x="28" y="108" width="2" height="2"/>
      <rect x="16" y="112" width="8" height="8"/>
      <rect x="16" y="120" width="4" height="4"/>
      <rect x="16" y="124" width="2" height="2"/>
      <rect x="20" y="120" width="2" height="2"/>
      <rect x="20" y="124" width="2" height="2"/>
      <rect x="24" y="112" width="4" height="4"/>
      <rect x="24" y="116" width="2" height="2"/>
      <rect x="28" y="112" width="2" height="2"/>
      <rect x="28" y="116" width="2" height="2"/>
      <rect x="24" y="120" width="4" height="4"/>
      <rect x="24" y="124" width="2" height="2"/>
      <rect x="28" y="120" width="2" height="2"/>
      <rect x="28" y="124" width="2" height="2"/>
      <rect x="32" y="64" width="16" height="16"/>
      <rect x="32" y="80" width="8" height="8"/>
      <rect x="32" y="88" width="4" height="4"/>
      <rect x="32" y="92" width="2" height="2"/>
      <rect x="36" y="88" width="2" height="2"/>
      <rect x="36" y="92" width="2" height="2"/>
      <rect x="40" y="80" width="4" height="4"/>
      <rect x="40" y="84" width="2" height="2"/>
      <rect x="44" y="80" width="2" height="2"/>
      <rect x="44" y="84" width="2" height="2"/>
      <rect x="40" y="88" width="4" height="4"/>
      <rect x="40" y="92" width="2" height="2"/>
      <rect x="44" y="88" width="2" height="2"/>
      <rect x="44" y="92" width="2" height="2"/>
      <rect x="48" y="64" width="8" height="8"/>
      <rect x="48" y="72" width="4" height="4"/>
      <rect x="48" y="76" width="2" height="2"/>
      <rect x="52" y="72" width="2" height="2"/>
      <rect x="52" y="76" width="2" height="2"/>
      <rect x="56" y="64" width="4" height="4"/>
      <rect x="56" y="68" width="2" height="2"/>
      <rect x="60" y="64" width="2" height="2"/>
      <rect x="60" y="68" width="2" height="2"/>
      <rect x="56" y="72" width="4" height="4"/>
      <rect x="56" y="76" width="2" height="2"/>
      <rect x="60" y="72" width="2" height="2"/>
      <rect x="60" y="76" width="2" height="2"/>
      <rect x="48" y="80" width="8" height="8"/>
      <rect x="48" y="88" width="4" height="4"/>
      <rect x="48" y="92" width="2" height="2"/>
      <rect x="52" y="88" width="2" height="2"/>
      <rect x="52" y="92" width="2" height="2"/>
      <rect x="56" y="80" width="4" height="4"/>
      <rect x="56" y="84" width="2" height="2"/>
      <rect x="60" y="80" width="2" height="2"/>
      <rect x="60" y="84" width="2" height="2"/>
      <rect x="56" y="88" width="4" height="4"/>
      <rect x="56" y="92" width="2" height="2"/>
      <rect x="60" y="88" width="2" height="2"/>
      <rect x="60" y="92" width="2" height="2"/>
      <rect x="32" y="96" width="16" height="16"/>
      <rect x="32" y="112" width="8" height="8"/>
      <rect x="32" y="120" width="4" height="4"/>
      <rect x="32" y="124" width="2" height="2"/>
      <rect x="36" y="120" width="2" height="2"/>
      <rect x="36" y="124" width="2" height="2"/>
      <rect x="40" y="112" width="4" height="4"/>
      <rect x="40" y="116" width="2" height="2"/>
      <rect x="44" y="112" width="2" height="2"/>
      <rect x="44" y="116" width="2" height="2"/>
      <rect x="40" y="120" width="4" height="4"/>
      <rect x="40" y="124" width="2" height="2"/>
      <rect x="44" y="120" width="2" height="2"/>
      <rect x="44" y="124" width="2" height="2"/>
      <rect x="48" y="96" width="8" height="8"/>
      <rect x="48" y="104" width="4" height="4"/>
      <rect x="48" y="108" width="2" height="2"/>
      <rect x="52" y="104" width="2" height="2"/>
      <rect x="52" y="108" width="2" height="2"/>
      <rect x="56" y="96" width="4" height="4"/>
      <rect x="56" y="100" width="2" height="2"/>
      <rect x="60" y="96" width="2" height="2"/>
      <rect x="60" y="100" width="2" height="2"/>
      <rect x="56" y="104" width="4" height="4"/>
      <rect x="56" y="108" width="2" height="2"/>
      <rect x="60" y="104" width="2" height="2"/>
      <rect x="60" y="108" width="2" height="2"/>
      <rect x="48" y="112" width="8" height="8"/>
      <rect x="48" y="120" width="4" height="4"/>
      <rect x="48" y="124" width="2" height="2"/>
      <rect x="52" y="120" width="2" height="2"/>
      <rect x="52" y="124" width="2" height="2"/>
      <rect x="56" y="112" width="4" height="4"/>
      <rect x="56" y="116" width="2" height="2"/>
      <rect x="60" y="112" width="2" height="2"/>
      <rect x="60" y="116" width="2" height="2"/>
      <rect x="56" y="120" width="4" height="4"/>
      <rect x="56" y="124" width="2" height="2"/>
      <rect x="60" y="120" width="2" height="2"/>
      <rect x="60" y="124" width="2" height="2"/>
      <rect x="64" y="0" width="32" height="32"/>
      <rect x="64" y="32" width="16" height="16"/>
      <rect x="64" y="48" width="8" height="8"/>
      <rect x="64" y="56" width="4" height="4"/>
      <rect x="64" y="60" width="2" height="2"/>
      <rect x="68" y="56" width="2" height="2"/>
      <rect x="68" y="60" width="2" height="2"/>
      <rect x="72" y="48" width="4" height="4"/>
      <rect x="72" y="52" width="2" height="2"/>
      <rect x="76" y="48" width="2" height="2"/>
      <rect x="76" y="52" width="2" height="2"/>
      <rect x="72" y="56" width="4" height="4"/>
      <rect x="72" y="60" width="2" height="2"/>
      <rect x="76" y="56" width="2" height="2"/>
      <rect x="76" y="60" width="2" height="2"/>
      <rect x="80" y="32" width="8" height="8"/>
      <rect x="80" y="40" width="4" height="4"/>
      <rect x="80" y="44" width="2" height="2"/>
      <rect x="84" y="40" width="2" height="2"/>
      <rect x="84" y="44" width="2" height="2"/>
      <rect x="88" y="32" width="4" height="4"/>
      <rect x="88" y="36" width="2" height="2"/>
      <rect x="92" y="32" width="2" height="2"/>
      <rect x="92" y="36" width="2" height="2"/>
      <rect x="88" y="40" width="4" height="4"/>
      <rect x="88" y="44" width="2" height="2"/>
      <rect x="92" y="40" width="2" height="2"/>
      <rect x="92" y="44" width="2" height="2"/>
      <rect x="80" y="48" width="8" height="8"/>
      <rect x="80" y="56" width="4" height="4"/>
      <rect x="80" y="60" width="2" height="2"/>
      <rect x="84" y="56" width="2" height="2"/>
      <rect x="84" y="60" width="2" height="2"/>
      <rect x="88" y="48" width="4" height="4"/>
      <rect x="88" y="52" width="2" height="2"/>
      <rect x="92" y="48" width="2" height="2"/>
      <rect x="92" y="52" width="2" height="2"/>
      <rect x="88" y="56" width="4" height="4"/>
      <rect x="88" y="60" width="2" height="2"/>
      <rect x="92" y="56" width="2" height="2"/>
      <rect x="92" y="60" width="2" height="2"/>
      <rect x="96" y="0" width="16" height="16"/>
      <rect x="96" y="16" width="8" height="8"/>
      <rect x="96" y="24" width="4" height="4"/>
      <rect x="96" y="28" width="2" height="2"/>
      <rect x="100" y="24" width="2" height="2"/>
      <rect x="100" y="28" width="2" height="2"/>
      <rect x="104" y="16" width="4" height="4"/>
      <rect x="104" y="20" width="2" height="2"/>
      <rect x="108" y="16" width="2" height="2"/>
      <rect x="108" y="20" width="2" height="2"/>
      <rect x="104" y="24" width="4" height="4"/>
      <rect x="104" y="28" width="2" height="2"/>
      <rect x="108" y="24" width="2" height="2"/>
      <rect x="108" y="28" width="2" height="2"/>
      <rect x="112" y="0" width="8" height="8"/>
      <rect x="112" y="8" width="4" height="4"/>
      <rect x="112" y="12" width="2" height="2"/>
      <rect x="116" y="8" width="2" height="2"/>
      <rect x="116" y="12" width="2" height="2"/>
      <rect x="120" y="0" width="4" height="4"/>
      <rect x="120" y="4" width="2" height="2"/>
      <rect x="124" y="0" width="2" height="2"/>
      <rect x="124" y="4" width="2" height="2"/>
      <rect x="120" y="8" width="4" height="4"/>
      <rect x="120" y="12" width="2" height="2"/>
      <rect x="124" y="8" width="2" height="2"/>
      <rect x="124" y="12" width="2" height="2"/>
      <rect x="112" y="16" width="8" height="8"/>
      <rect x="112" y="24" width="4" height="4"/>
      <rect x="112" y="28" width="2" height="2"/>
      <rect x="116" y="24" width="2" height="2"/>
      <rect x="116" y="28" width="2" height="2"/>
      <rect x="120" y="16" width="4" height="4"/>
      <rect x="120" y="20" width="2" height="2"/>
      <rect x="124" y="16" width="2" height="2"/>
      <rect x="124" y="20" width="2" height="2"/>
      <rect x="120" y="24" width="4" height="4"/>
      <rect x="120" y="28" width="2" height="2"/>
      <rect x="124" y="24" width="2" height="2"/>
      <rect x="124" y="28" width="2" height="2"/>
      <rect x="96" y="32" width="16" height="16"/>
      <rect x="96" y="48" width="8" height="8"/>
      <rect x="96" y="56" width="4" height="4"/>
      <rect x="96" y="60" width="2" height="2"/>
      <rect x="100" y="56" width="2" height="2"/>
      <rect x="100" y="60" width="2" height="2"/>
      <rect x="104" y="48" width="4" height="4"/>
      <rect x="104" y="52" width="2" height="2"/>
      <rect x="108" y="48" width="2" height="2"/>
      <rect x="108" y="52" width="2" height="2"/>
      <rect x="104" y="56" width="4" height="4"/>
      <rect x="104" y="60" width="2" height="2"/>
      <rect x="108" y="56" width="2" height="2"/>
      <rect x="108" y="60" width="2" height="2"/>
      <rect x="112" y="32" width="8" height="8"/>
      <rect x="112" y="40" width="4" height="4"/>
      <rect x="112" y="44" width="2" height="2"/>
      <rect x="116" y="40" width="2" height="2"/>
      <rect x="116" y="44" width="2" height="2"/>
      <rect x="120" y="32" width="4" height="4"/>
      <rect x="120" y="36" width="2" height="2"/>
      <rect x="124" y="32" width="2" height="2"/>
      <rect x="124" y="36" width="2" height="2"/>
      <rect x="120" y="40" width="4" height="4"/>
      <rect x="120" y="44" width="2" height="2"/>
      <rect x="124" y="40" width="2" height="2"/>
      <rect x="124" y="44" width="2" height="2"/>
      <rect x="112" y="48" width="8" height="8"/>
      <rect x="112" y="56" width="4" height="4"/>
      <rect x="112" y="60" width="2" height="2"/>
      <rect x="116" y="56" width="2" height="2"/>
      <rect x="116" y="60" width="2" height="2"/>
      <rect x="120" y="48" width="4" height="4"/>
      <rect x="120" y="52" width="2" height="2"/>
      <rect x="124" y="48" width="2" height="2"/>
      <rect x="124" y="52" width="2" height="2"/>
      <rect x="120" y="56" width="4" height="4"/>
      <rect x="120" y="60" width="2" height="2"/>
      <rect x="124" y="56" width="2" height="2"/>
      <rect x="124" y="60" width="2" height="2"/>
      <rect x="64" y="64" width="32" height="32"/>
      <rect x="64" y="96" width="16" height="16"/>
      <rect x="64" y="112" width="8" height="8"/>
      <rect x="64" y="120" width="4" height="4"/>
      <rect x="64" y="124" width="2" height="2"/>
      <rect x="68" y="120" width="2" height="2"/>
      <rect x="68" y="124" width="2" height="2"/>
      <rect x="72" y="112" width="4" height="4"/>
      <rect x="72" y="116" width="2" height="2"/>
      <rect x="76" y="112" width="2" height="2"/>
      <rect x="76" y="116" width="2" height="2"/>
      <rect x="72" y="120" width="4" height="4"/>
      <rect x="72" y="124" width="2" height="2"/>
      <rect x="76" y="120" width="2" height="2"/>
      <rect x="76" y="124" width="2" height="2"/>
      <rect x="80" y="96" width="8" height="8"/>
      <rect x="80" y="104" width="4" height="4"/>
      <rect x="80" y="108" width="2" height="2"/>
      <rect x="84" y="104" width="2" height="2"/>
      <rect x="84" y="108" width="2" height="2"/>
      <rect x="88" y="96" width="4" height="4"/>
      <rect x="88" y="100" width="2" height="2"/>
      <rect x="92" y="96" width="2" height="2"/>
      <rect x="92" y="100" width="2" height="2"/>
      <rect x="88" y="104" width="4" height="4"/>
      <rect x="88" y="108" width="2" height="2"/>
      <rect x="92" y="104" width="2" height="2"/>
      <rect x="92" y="108" width="2" height="2"/>
      <rect x="80" y="112" width="8" height="8"/>
      <rect x="80" y="120" width="4" height="4"/>
      <rect x="80" y="124" width="2" height="2"/>
      <rect x="84" y="120" width="2" height="2"/>
      <rect x="84" y="124" width="2" height="2"/>
      <rect x="88" y="112" width="4" height="4"/>
      <rect x="88" y="116" width="2" height="2"/>
      <rect x="92" y="112" width="2" height="2"/>
      <rect x="92" y="116" width="2" height="2"/>
      <rect x="88" y="120" width="4" height="4"/>
      <rect x="88" y="124" width="2" height="2"/>
      <rect x="92" y="120" width="2" height="2"/>
      <rect x="92" y="124" width="2" height="2"/>
      <rect x="96" y="64" width="16" height="16"/>
      <rect x="96" y="80" width="8" height="8"/>
      <rect x="96" y="88" width="4" height="4"/>
      <rect x="96" y="92" width="2" height="2"/>
      <rect x="100" y="88" width="2" height="2"/>
      <rect x="100" y="92" width="2" height="2"/>
      <rect x="104" y="80" width="4" height="4"/>
      <rect x="104" y="84" width="2" height="2"/>
      <rect x="108" y="80" width="2" height="2"/>
      <rect x="108" y="84" width="2" height="2"/>
      <rect x="104" y="88" width="4" height="4"/>
      <rect x="104" y="92" width="2" height="2"/>
      <rect x="108" y="88" width="2" height="2"/>
      <rect x="108" y="92" width="2" height="2"/>
      <rect x="112" y="64" width="8" height="8"/>
      <rect x="112" y="72" width="4" height="4"/>
      <rect x="112" y="76" width="2" height="2"/>
      <rect x="116" y="72" width="2" height="2"/>
      <rect x="116" y="76" width="2" height="2"/>
      <rect x="120" y="64" width="4" height="4"/>
      <rect x="120" y="68" width="2" height="2"/>
      <rect x="124" y="64" width="2" height="2"/>
      <rect x="124" y="68" width="2" height="2"/>
      <rect x="120" y="72" width="4" height="4"/>
      <rect x="120" y="76" width="2" height="2"/>
      <rect x="124" y="72" width="2" height="2"/>
      <rect x="124" y="76" width="2" height="2"/>
      <rect x="112" y="80" width="8" height="8"/>
      <rect x="112" y="88" width="4" height="4"/>
      <rect x="112" y="92" width="2" height="2"/>
      <rect x="116" y="88" width="2" height="2"/>
      <rect x="116" y="92" width="2" height="2"/>
      <rect x="120" y="80" width="4" height="4"/>
      <rect x="120" y="84" width="2" height="2"/>
      <rect x="124" y="80" width="2" height="2"/>
      <rect x="124" y="84" width="2" height="2"/>
      <rect x="120" y="88" width="4" height="4"/>
      <rect x="120" y="92" width="2" height="2"/>
      <rect x="124" y="88" width="2" height="2"/>
      <rect x="124" y="92" width="2" height="2"/>
      <rect x="96" y="96" width="16" height="16"/>
      <rect x="96" y="112" width="8" height="8"/>
      <rect x="96" y="120" width="4" height="4"/>
      <rect x="96" y="124" width="2" height="2"/>
      <rect x="100" y="120" width="2" height="2"/>
      <rect x="100" y="124" width="2" height="2"/>
      <rect x="104" y="112" width="4" height="4"/>
      <rect x="104" y="116" width="2" height="2"/>
      <rect x="108" y="112" width="2" height="2"/>
      <rect x="108" y="116" width="2" height="2"/>
      <rect x="104" y="120" width="4" height="4"/>
      <rect x="104" y="124" width="2" height="2"/>
      <rect x="108" y="120" width="2" height="2"/>
      <rect x="108" y="124" width="2" height="2"/>
      <rect x="112" y="96" width="8" height="8"/>
      <rect x="112" y="104" width="4" height="4"/>
      <rect x="112" y="108" width="2" height="2"/>
      <rect x="116" y="104" width="2" height="2"/>
      <rect x="116" y="108" width="2" height="2"/>
      <rect x="120" y="96" width="4" height="4"/>
      <rect x="120" y="100" width="2" height="2"/>
      <rect x="124" y="96" width="2" height="2"/>
      <rect x="124" y="100" width="2" height="2"/>
      <rect x="120" y="104" width="4" height="4"/>
      <rect x="120" y="108" width="2" height="2"/>
      <rect x="124" y="104" width="2" height="2"/>
      <rect x="124" y="108" width="2" height="2"/>
      <rect x="112" y="112" width="8" height="8"/>
      <rect x="112" y="120" width="4" height="4"/>
      <rect x="112" y="124" width="2" height="2"/>
      <rect x="116" y="120" width="2" height="2"/>
      <rect x="116" y="124" width="2" height="2"/>
      <rect x="120" y="112" width="4" height="4"/>
      <rect x="120" y="116" width="2" height="2"/>
      <rect x="124" y="112" width="2" height="2"/>
      <rect x="124" y="116" width="2" height="2"/>
      <rect x="120" y="120" width="4" height="4"/>
      <rect x="120" y="124" width="2" height="2"/>
      <rect x="124" y="120" width="2" height="2"/>
      <rect x="124" y="124" width="2" height="2"/>
    </g>
  </g>
</svg>
