<?xml version="1.0" encoding="utf-8" standalone="no"?>
<!DOCTYPE svg PUBLIC "-//W3C//DTD SVG 20010904//EN" "http://www.w3.org/TR/2001/REC-SVG-20010904/DTD/svg10.dtd">
<svg xmlns="http://www.w3.org/2000/svg"
     viewBox="-10 -10 220 110"
     xmlns:xlink="http://www.w3.org/1999/xlink">
  <defs>
    <style type="text/css">
    <![CDATA[
      text {color:#4040A0; font-family:Helvetica,sans-serif; font-size:15px; font-weight:bold; text-anchor:middle}
    ]]>
    </style>
  </defs>

  <!-- Zifferblattränder -->
  <g fill="#F0F0F0" stroke="#808080" stroke-width="0.5">
    <circle cx="50" cy="50" r="50" />
    <circle cx="160" cy="50" r="50" />
  </g>

  <!-- Mondphasen -->
  <g stroke="#FF0000" stroke-width="0.2">
    <circle fill="#FFE040" cx="50" cy="10" r="10" />
    <circle fill="#FFE040" cx="90" cy="50" r="10" />
    <circle fill="#4040A0" cx="50" cy="90" r="10" />
    <circle fill="#FFE040" cx="10" cy="50" r="10" />
  </g>
  <path stroke="#FFFF0" fill="#4040A0" d="M 90,40 A 10,10 0 1 1 90,60 L 90,40 z" />
  <path stroke="#FFFF0" fill="#4040A0" d="M 10,60 A 10,10 0 1 1 10,40 L 10,60 z" />

  <!-- Wochentage -->
  <use transform="translate(160,50) rotate(0)  ">     <text x="0" y="-36">So</text> </use>
  <use transform="translate(160,50) rotate(51.43) ">  <text x="0" y="-36">Mo</text> </use>
  <use transform="translate(160,50) rotate(102.86) "> <text x="0" y="-36">Di</text> </use>
  <use transform="translate(160,50) rotate(154.29) "> <text x="0" y="-36">Mi</text> </use>
  <use transform="translate(160,50) rotate(205.71) "> <text x="0" y="-36">Do</text> </use>
  <use transform="translate(160,50) rotate(257.14) "> <text x="0" y="-36">Fr</text> </use>
  <use transform="translate(160,50) rotate(308.57) "> <text x="0" y="-36">Sa</text> </use>

  <!-- Zeiger -->
  <line stroke="#000000" stroke-linecap="round" stroke-width="5" x1="50" y1="50" x2="50" y2="22" />
  <circle fill="#000000" cx="50" cy="50" r="6" />
  <circle fill="#FFFFFF" cx="50" cy="50" r="2" />

  <line stroke="#000000" stroke-linecap="round" stroke-width="5" x1="160" y1="50" x2="186" y2="29" />
  <circle fill="#000000" cx="160" cy="50" r="6" />
  <circle fill="#FFFFFF" cx="160" cy="50" r="2" />
</svg>
