<?xml version="1.0" encoding="utf-8" standalone="no"?>
<!DOCTYPE svg PUBLIC "-//W3C//DTD SVG 20010904//EN" "http://www.w3.org/TR/2001/REC-SVG-20010904/DTD/svg10.dtd">
<svg xmlns="http://www.w3.org/2000/svg"
     viewBox="-5 -5 105 105"
     xmlns:xlink="http://www.w3.org/1999/xlink">
  <defs>
    <style type="text/css">
    <![CDATA[
      text {color:#4040A0; font-family:Helvetica,sans-serif; font-size:10px; text-anchor:middle}
    ]]>
    </style>
  </defs>

  <!-- Zifferblatt -->
  <g fill="#F0F0F0" stroke="#808080" stroke-width="0.5">
    <circle cx="50" cy="50" r="50" />
  </g>
  <circle fill="#200080" stroke-width="0" cx="50" cy="50" r="40" />
  <circle fill="#FFE000" stroke-width="0" cx="32" cy="39" r="18" />
  <circle fill="#C0C0C0" stroke-width="0" cx="28" cy="50" r="18" />
  <circle fill="#C0C0C0" stroke-width="0" cx="72" cy="50" r="18" />
  <circle fill="#C0C0C0" stroke-width="0" cx="50" cy="50" r="4" />
  <path fill="#C0C0C0" stroke-width="0" d="M 10,50 A 10,10 135 0 0 90,50  z" />

  <!-- Wochentage -->
  <use transform="translate(50,50) rotate(0)  ">     <text x="0" y="-42">So</text> </use>
  <use transform="translate(50,50) rotate(51.43) ">  <text x="0" y="-42">Mo</text> </use>
  <use transform="translate(50,50) rotate(102.86) "> <text x="0" y="-42">Di</text> </use>
  <use transform="translate(50,50) rotate(154.29) "> <text x="0" y="-42">Mi</text> </use>
  <use transform="translate(50,50) rotate(205.71) "> <text x="0" y="-42">Do</text> </use>
  <use transform="translate(50,50) rotate(257.14) "> <text x="0" y="-42">Fr</text> </use>
  <use transform="translate(50,50) rotate(308.57) "> <text x="0" y="-42">Sa</text> </use>

  <!-- Zeiger -->
  <line stroke="#000000" stroke-linecap="round" stroke-width="3" x1="50" y1="50" x2="68" y2="83" />
  <circle fill="#000000" cx="50" cy="50" r="3" />
  <circle fill="#FFFFFF" cx="50" cy="50" r="1" />
</svg>
